<svg width="138" height="162" xmlns="http://www.w3.org/2000/svg" style="vector-effect: non-scaling-stroke;" stroke="null">

 <g stroke="null">
  <title stroke="null">Layer 1</title>
  <g stroke="null">

   <title stroke="null">lead-generation</title>
   <path stroke="null" fill-rule="evenodd" d="m71.4713,119.06974c8,0 14.51,2.64 14.51,5.8s-6.62,5.8 -14.78,5.8s-14.78,-2.61 -14.78,-5.8s6.39,-5.74 14.39,-5.79l0.66,-0.01zm15.89,-79.33c-0.59,-0.94 -1.7,-2.22 -1.7,-3.33a1.78,1.78 0 0 1 1.2,-1.62c-0.05,-0.93 -0.05,-1.88 -0.05,-2.82c0,-0.55 0,-1.11 0,-1.66a5.84,5.84 0 0 1 0.18,-1a5.9,5.9 0 0 1 2.65,-3.37a8.29,8.29 0 0 1 1.44,-0.69c0.91,-0.33 0.47,-1.86 1.47,-1.88c2.33,-0.06 6.16,2.07 7.65,3.69a5.9,5.9 0 0 1 1.53,3.84l-0.09,4.08a1.35,1.35 0 0 1 1,0.84c0.32,1.29 -1,2.89 -1.64,3.91s-2.77,4 -2.77,4a0.85,0.85 0 0 0 0.2,0.48c3.38,4.67 13.38,1.72 13.38,11.02l-35.34,0c0,-9.3 10,-6.35 13.39,-11c0.17,-0.25 0.25,-0.38 0.25,-0.49s-2.52,-3.62 -2.75,-4zm-22.42,71.32a2.6,2.6 0 0 1 -5.2,0l0,-18l-29.15,-28.55a2.59,2.59 0 0 1 1.81,-4.44l77.41,0a2.6,2.6 0 0 1 1.67,4.58l-29.38,28.37l0,18a2.6,2.6 0 0 1 -5.19,0l0,-19.09a2.63,2.63 0 0 1 0.8,-1.86l25.68,-24.82l-64.64,0l25.27,24.7a2.61,2.61 0 0 1 0.92,2l0,19.11zm-23.64,-71.32c-0.59,-0.94 -1.7,-2.22 -1.7,-3.33a1.79,1.79 0 0 1 1.21,-1.62c-0.05,-0.93 -0.09,-1.88 -0.09,-2.82c0,-0.55 0,-1.11 0,-1.66a5.85,5.85 0 0 1 0.19,-1a5.9,5.9 0 0 1 2.65,-3.37a8.19,8.19 0 0 1 1.43,-0.69c0.92,-0.36 0.48,-1.91 1.48,-1.91c2.34,-0.06 6.16,2.07 7.66,3.69a6,6 0 0 1 1.53,3.84l-0.1,4.08a1.31,1.31 0 0 1 1,0.84c0.32,1.29 -1,2.89 -1.64,3.91s-2.76,4 -2.76,4a0.82,0.82 0 0 0 0.19,0.48c3.4,4.67 13.4,1.72 13.4,11l-35.35,0c0,-9.3 10,-6.35 13.4,-11c0.17,-0.25 0.24,-0.38 0.24,-0.49s-2.52,-3.62 -2.74,-4l0,0.05zm36.37,83.94l0,2.08l-1.24,0a15.19,15.19 0 0 1 -0.24,1.92l-2.4,-0.43l0,-2.21a1,1 0 0 0 -0.17,-0.68a2,2 0 0 0 -0.9,-0.18l-0.11,0.91a3.6,3.6 0 0 1 -0.91,2.31a2.67,2.67 0 0 1 -1.84,0.63a8.22,8.22 0 0 1 -2,-0.22a2.17,2.17 0 0 1 -1,-0.62a3.05,3.05 0 0 1 -0.69,-1.83l-1.57,0l0,-2.16l1.57,0.06a10.87,10.87 0 0 1 0.37,-2.22l2.46,0.42a9.2,9.2 0 0 0 -0.34,2.53a8.28,8.28 0 0 0 0.06,1l0.9,0l0.1,-0.9a3,3 0 0 1 1.09,-2.32a3.71,3.71 0 0 1 2,-0.43a4.6,4.6 0 0 1 2.68,0.64a2.59,2.59 0 0 1 0.93,1.71l1.28,0l-0.03,-0.01zm-6.26,-6.53c9.83,0 17.77,4.26 17.77,9.43s-8.06,9.43 -18,9.43s-18,-4.23 -18,-9.43s8,-9.4 17.78,-9.43l0.45,0zm17.77,19.93c0,14.22 -43.08,10.7 -35.21,-2.7c5.09,8.9 29.37,8.89 34.45,0a5.34,5.34 0 0 1 0.76,2.7z" class="cls-1"/>
  </g>
  <path fill="white" id="svg_2" d="m46.92666,131.61985l6.04762,-14.5l35.57142,-1.66666l2.71428,18.49999l-1.04761,12.5l-39.90476,0.33333l-3.38095,-15.16666z"/>
  <g style="vector-effect: non-scaling-stroke;" stroke="null">
   <path style="vector-effect: non-scaling-stroke;" stroke="null" clip-rule="evenodd" fill-rule="evenodd" d="m0.33784,108.49053l24.83,0l0,44.18l-24.83,0l0,-44.18zm29.83,40.47l0,-36.93l16.61,0c7.04,1.26 14.08,5.08 21.12,9.51l12.9,0c5.84,0.35 8.9,6.27 3.22,10.16c-4.52,3.32 -10.49,3.13 -16.61,2.58c-4.22,-0.21 -4.4,5.46 0,5.48c1.53,0.12 3.19,-0.24 4.64,-0.24c7.64,-0.01 13.92,-1.47 17.77,-7.5l1.93,-4.51l19.19,-9.51c9.6,-3.16 16.42,6.88 9.35,13.87c-13.9,10.11 -28.15,18.43 -42.73,25.15c-10.59,6.44 -21.18,6.22 -31.76,0l-15.63,-8.06z"/>
  </g>
  <path fill="white" stroke="null" id="svg_7" d="m0,32.6993l68.9999,-14.51467l69.00006,14.51467l-26.35556,23.48532l-85.28877,0l-26.35564,-23.48532z"/>
  <path transform="rotate(-6 54.4263 44.8981)" stroke="null" id="svg_6" d="m48.43888,41.06567c0,0 -1.0565,-3.82846 0,-5.12534c1.05774,-1.29688 1.4796,-2.16074 3.80539,-2.77918s1.47835,-0.49519 3.1695,-0.43193c1.69115,0.06217 3.10106,0.86386 3.10106,1.29579c0,0 1.0565,0.06217 1.47835,0.43302c0.4231,0.37085 1.12743,2.09856 1.12743,2.53158s-0.35217,3.33545 -0.70433,3.9528l0.41936,0.12325c0.35217,3.58086 -1.40867,4.01388 -1.40867,4.01388c-0.6334,3.33545 -1.26805,1.91532 -1.26805,2.77918s0.63465,0.55627 0.63465,0.55627s0.56247,1.35796 1.97114,1.85206c1.40867,0.49301 9.22851,3.14785 9.86441,3.70412c0.63589,0.55736 0.56372,3.15003 0.56372,3.15003l-33.533,0c0,0 -0.07342,-2.59266 0.56247,-3.15003c0.63714,-0.55736 8.45698,-3.21111 9.86565,-3.70412c1.40867,-0.4941 1.97114,-1.85206 1.97114,-1.85206s0.63465,0.30759 0.63465,-0.55627s-0.63465,0.55627 -1.26929,-2.77918c0,0 -1.75959,-0.43302 -1.40867,-4.01388l0.4231,0z"/>
  <path transform="rotate(-29 25.4374 32.9501)" stroke="null" id="svg_5" d="m30.58896,28.29471c0,0 0.90901,-4.65063 0,-6.22601c-0.91008,-1.57538 -1.27304,-2.62476 -3.27415,-3.37601s-1.27197,-0.60153 -2.72703,-0.52469c-1.45506,0.07552 -2.66814,1.04937 -2.66814,1.57406c0,0 -0.90901,0.07552 -1.27197,0.52601c-0.36403,0.45049 -0.97004,2.54923 -0.97004,3.07524s0.303,4.05174 0.60601,4.80167l-0.36082,0.14972c-0.303,4.34986 1.21201,4.87587 1.21201,4.87587c0.54498,4.05174 1.09103,2.32664 1.09103,3.37601s-0.54605,0.67573 -0.54605,0.67573s-0.48395,1.64958 -1.69596,2.24979c-1.21201,0.59888 -7.94018,3.82385 -8.4873,4.49958c-0.54712,0.67706 -0.48502,3.8265 -0.48502,3.8265l28.85169,0c0,0 0.06317,-3.14944 -0.48395,-3.8265c-0.54819,-0.67706 -7.27636,-3.9007 -8.48837,-4.49958c-1.21201,-0.60021 -1.69596,-2.24979 -1.69596,-2.24979s-0.54605,0.37364 -0.54605,-0.67573s0.54605,0.67573 1.0921,-3.37601c0,0 1.51395,-0.52601 1.21201,-4.87587l-0.36403,0z"/>
  <path transform="rotate(19 89.4374 39.6168)" stroke="null" id="svg_8" d="m94.58895,34.96137c0,0 0.90901,-4.65063 0,-6.22601c-0.91008,-1.57538 -1.27304,-2.62476 -3.27415,-3.37601s-1.27197,-0.60153 -2.72703,-0.52469c-1.45506,0.07553 -2.66814,1.04938 -2.66814,1.57406c0,0 -0.90901,0.07552 -1.27197,0.52601c-0.36404,0.45049 -0.97004,2.54923 -0.97004,3.07525s0.303,4.05174 0.606,4.80167l-0.36082,0.14972c-0.303,4.34986 1.21202,4.87587 1.21202,4.87587c0.54497,4.05174 1.09102,2.32664 1.09102,3.37601s-0.54605,0.67573 -0.54605,0.67573s-0.48394,1.64958 -1.69596,2.24979c-1.21201,0.59888 -7.94018,3.82385 -8.4873,4.49958c-0.54712,0.67706 -0.48502,3.8265 -0.48502,3.8265l28.85169,0c0,0 0.06317,-3.14944 -0.48395,-3.8265c-0.54819,-0.67706 -7.27636,-3.9007 -8.48837,-4.49958c-1.21201,-0.60021 -1.69596,-2.24979 -1.69596,-2.24979s-0.54605,0.37364 -0.54605,-0.67573s0.54605,0.67573 1.0921,-3.37601c0,0 1.51394,-0.52601 1.21201,-4.87587l-0.36403,0z"/>
  <path transform="rotate(-11 69.4374 15.2834)" stroke="null" id="svg_9" d="m74.58896,10.62804c0,0 0.90901,-4.65063 0,-6.22601c-0.91008,-1.57538 -1.27304,-2.62476 -3.27415,-3.37601s-1.27197,-0.60153 -2.72703,-0.52469c-1.45506,0.07553 -2.66814,1.04938 -2.66814,1.57406c0,0 -0.90901,0.07552 -1.27197,0.52601c-0.36404,0.45049 -0.97004,2.54923 -0.97004,3.07525s0.303,4.05174 0.606,4.80167l-0.36082,0.14972c-0.303,4.34986 1.21202,4.87587 1.21202,4.87587c0.54497,4.05174 1.09102,2.32664 1.09102,3.37601s-0.54605,0.67573 -0.54605,0.67573s-0.48394,1.64958 -1.69596,2.24979c-1.21201,0.59888 -7.94018,3.82385 -8.4873,4.49958c-0.54712,0.67706 -0.48502,3.8265 -0.48502,3.8265l28.85169,0c0,0 0.06317,-3.14944 -0.48395,-3.8265c-0.54819,-0.67706 -7.27636,-3.9007 -8.48837,-4.49958c-1.21201,-0.60021 -1.69596,-2.24979 -1.69596,-2.24979s-0.54605,0.37364 -0.54605,-0.67573s0.54605,0.67573 1.0921,-3.37601c0,0 1.51394,-0.52601 1.21201,-4.87587l-0.36403,0z"/>
  <path transform="rotate(30 114.104 38.2835)" stroke="null" id="svg_11" d="m119.25561,33.62804c0,0 0.90901,-4.65063 0,-6.22601c-0.91008,-1.57538 -1.27304,-2.62476 -3.27415,-3.37601s-1.27197,-0.60153 -2.72703,-0.52469c-1.45506,0.07553 -2.66814,1.04938 -2.66814,1.57406c0,0 -0.90901,0.07552 -1.27197,0.52601c-0.36404,0.45049 -0.97004,2.54923 -0.97004,3.07525s0.303,4.05174 0.606,4.80167l-0.36082,0.14972c-0.303,4.34986 1.21202,4.87587 1.21202,4.87587c0.54497,4.05174 1.09102,2.32664 1.09102,3.37601s-0.54605,0.67573 -0.54605,0.67573s-0.48394,1.64958 -1.69596,2.24979c-1.21201,0.59888 -7.94018,3.82385 -8.4873,4.49958c-0.54712,0.67706 -0.48502,3.8265 -0.48502,3.8265l28.85169,0c0,0 0.06317,-3.14944 -0.48395,-3.8265c-0.54819,-0.67706 -7.27636,-3.9007 -8.48837,-4.49958c-1.21201,-0.60021 -1.69596,-2.24979 -1.69596,-2.24979s-0.54605,0.37364 -0.54605,-0.67573s0.54605,0.67573 1.0921,-3.37601c0,0 1.51394,-0.52601 1.21201,-4.87587l-0.36403,0z"/>
 </g>
</svg>