<svg width="130" height="185" xmlns="http://www.w3.org/2000/svg">

 <g>
  <title>Layer 1</title>
  <g/>
  <g>

   <title>lead-generation</title>
   <path fill-rule="evenodd" d="m95.27864,143.29309zm-21.04,-13.81a2.6,2.6 0 0 1 -5.2,0l0,-18l-29.15,-28.55a2.59,2.59 0 0 1 1.81,-4.44l77.41,0a2.6,2.6 0 0 1 1.67,4.58l-29.38,28.37l0,18a2.6,2.6 0 0 1 -5.19,0l0,-19.09a2.63,2.63 0 0 1 0.8,-1.86l25.68,-24.82l-64.64,0l25.27,24.7a2.61,2.61 0 0 1 0.92,2l0,19.11z" class="cls-1"/>
  </g>
  <g>
   <path clip-rule="evenodd" fill-rule="evenodd" d="m1.72468,128.93153l24.83,0l0,44.18l-24.83,0l0,-44.18zm29.83,40.47l0,-36.93l16.61,0c7.04,1.26 14.08,5.08 21.12,9.51l12.9,0c5.84,0.35 8.9,6.27 3.22,10.16c-4.52,3.32 -10.49,3.13 -16.61,2.58c-4.22,-0.21 -4.4,5.46 0,5.48c1.53,0.12 3.19,-0.24 4.64,-0.24c7.64,-0.01 13.92,-1.47 17.77,-7.5l1.93,-4.51l19.19,-9.51c9.6,-3.16 16.42,6.88 9.35,13.87c-13.9,10.11 -28.15,18.43 -42.73,25.15c-10.59,6.44 -21.18,6.22 -31.76,0l-15.63,-8.06z"/>
  </g>
  <path stroke="null" id="svg_2" d="m83.84993,52.66706c0,0 1.20284,-5.27605 0,-7.06329c-1.20426,-1.78724 -1.68455,-2.97773 -4.3325,-3.83002s-1.68313,-0.68243 -3.60853,-0.59525c-1.9254,0.08568 -3.5306,1.19049 -3.5306,1.78574c0,0 -1.20284,0.08568 -1.68313,0.59675c-0.4817,0.51107 -1.2836,2.89205 -1.2836,3.4888s0.40095,4.59662 0.80189,5.4474l-0.47745,0.16986c-0.40095,4.93483 1.60379,5.53158 1.60379,5.53158c0.72114,4.59662 1.44369,2.63953 1.44369,3.83002s-0.72256,0.7666 -0.72256,0.7666s-0.64038,1.87142 -2.24417,2.55234c-1.60379,0.67942 -10.5068,4.33808 -11.23078,5.10469c-0.72397,0.76811 -0.6418,4.34109 -0.6418,4.34109l38.17784,0c0,0 0.08359,-3.57298 -0.64038,-4.34109c-0.72539,-0.76811 -9.6284,-4.42526 -11.23219,-5.10469c-1.60379,-0.68093 -2.24417,-2.55234 -2.24417,-2.55234s-0.72256,0.42389 -0.72256,-0.7666s0.72256,0.7666 1.44511,-3.83002c0,0 2.00332,-0.59675 1.60379,-5.53158l-0.4817,0z"/>
  <path transform="rotate(-30 42.1054 54.1205)" stroke="null" id="svg_7" d="m48.92177,48.83931c0,0 1.20284,-5.27605 0,-7.06329c-1.20426,-1.78724 -1.68455,-2.97773 -4.3325,-3.83002s-1.68313,-0.68243 -3.60853,-0.59524c-1.92539,0.08567 -3.5306,1.19049 -3.5306,1.78573c0,0 -1.20284,0.08568 -1.68313,0.59675c-0.4817,0.51107 -1.2836,2.89206 -1.2836,3.48881s0.40095,4.59662 0.8019,5.4474l-0.47746,0.16986c-0.40094,4.93483 1.60379,5.53158 1.60379,5.53158c0.72114,4.59662 1.4437,2.63952 1.4437,3.83002s-0.72256,0.7666 -0.72256,0.7666s-0.64038,1.87142 -2.24417,2.55234c-1.60379,0.67943 -10.5068,4.33809 -11.23078,5.10469c-0.72397,0.76811 -0.6418,4.34109 -0.6418,4.34109l38.17785,0c0,0 0.08359,-3.57298 -0.64039,-4.34109c-0.72539,-0.76811 -9.6284,-4.42526 -11.23219,-5.10469c-1.60379,-0.68092 -2.24417,-2.55234 -2.24417,-2.55234s-0.72256,0.42389 -0.72256,-0.7666s0.72256,0.7666 1.44511,-3.83002c0,0 2.00332,-0.59675 1.60379,-5.53158l-0.4817,0z"/>
  <path transform="rotate(25.7503 99.9993 17.2785)" stroke="null" id="svg_8" d="m106.8164,11.99727c0,0 1.20284,-5.27605 0,-7.06329c-1.20426,-1.78724 -1.68455,-2.97773 -4.3325,-3.83002s-1.68313,-0.68243 -3.60853,-0.59524c-1.92539,0.08567 -3.5306,1.19049 -3.5306,1.78573c0,0 -1.20284,0.08568 -1.68313,0.59675c-0.4817,0.51107 -1.2836,2.89206 -1.2836,3.48881s0.40095,4.59662 0.8019,5.4474l-0.47746,0.16986c-0.40094,4.93483 1.60379,5.53158 1.60379,5.53158c0.72114,4.59662 1.4437,2.63952 1.4437,3.83002s-0.72256,0.7666 -0.72256,0.7666s-0.64038,1.87142 -2.24417,2.55234c-1.60379,0.67943 -10.5068,4.33809 -11.23078,5.10469c-0.72397,0.76811 -0.6418,4.34109 -0.6418,4.34109l38.17785,0c0,0 0.08359,-3.57298 -0.64039,-4.34109c-0.72539,-0.76811 -9.6284,-4.42526 -11.23219,-5.10469c-1.60379,-0.68092 -2.24417,-2.55234 -2.24417,-2.55234s-0.72256,0.42389 -0.72256,-0.7666s0.72256,0.7666 1.44511,-3.83002c0,0 2.00332,-0.59675 1.60379,-5.53158l-0.4817,0z"/>
  <path transform="rotate(-22 61.7224 26.1305)" stroke="null" id="svg_10" d="m68.26832,21.04684c0,0 1.15509,-5.07835 0,-6.79862c-1.15645,-1.72026 -1.61767,-2.86614 -4.16049,-3.6865s-1.61631,-0.65685 -3.46527,-0.57293c-1.84894,0.08246 -3.39043,1.14588 -3.39043,1.71881c0,0 -1.15508,0.08247 -1.6163,0.57439c-0.46258,0.49192 -1.23264,2.78369 -1.23264,3.35808s0.38503,4.42437 0.77006,5.24327l-0.4585,0.1635c-0.38502,4.7499 1.54011,5.32429 1.54011,5.32429c0.69251,4.42438 1.38639,2.54061 1.38639,3.6865s-0.69388,0.73788 -0.69388,0.73788s-0.61495,1.80129 -2.15507,2.45669c-1.54012,0.65397 -10.08966,4.17553 -10.7849,4.91341c-0.69523,0.73933 -0.61632,4.17842 -0.61632,4.17842l36.66213,0c0,0 0.08027,-3.43909 -0.61496,-4.17842c-0.69659,-0.73933 -9.24614,-4.25944 -10.78626,-4.91341c-1.54012,-0.6554 -2.15507,-2.45669 -2.15507,-2.45669s-0.69387,0.408 -0.69387,-0.73788s0.69387,0.73788 1.38773,-3.6865c0,0 1.92379,-0.57439 1.54012,-5.32429l-0.46258,0z"/>
  <path transform="rotate(25.7503 113.396 54.1205)" stroke="null" id="svg_11" d="m120.21351,48.83931c0,0 1.20284,-5.27605 0,-7.06329c-1.20426,-1.78724 -1.68455,-2.97773 -4.3325,-3.83002s-1.68313,-0.68243 -3.60853,-0.59524c-1.92539,0.08567 -3.5306,1.19049 -3.5306,1.78573c0,0 -1.20284,0.08568 -1.68313,0.59675c-0.4817,0.51107 -1.2836,2.89206 -1.2836,3.48881s0.40095,4.59662 0.8019,5.4474l-0.47746,0.16986c-0.40094,4.93483 1.60379,5.53158 1.60379,5.53158c0.72114,4.59662 1.4437,2.63952 1.4437,3.83002s-0.72256,0.7666 -0.72256,0.7666s-0.64038,1.87142 -2.24417,2.55234c-1.60379,0.67943 -10.5068,4.33809 -11.23078,5.10469c-0.72397,0.76811 -0.6418,4.34109 -0.6418,4.34109l38.17785,0c0,0 0.08359,-3.57298 -0.64039,-4.34109c-0.72539,-0.76811 -9.6284,-4.42526 -11.23219,-5.10469c-1.60379,-0.68092 -2.24417,-2.55234 -2.24417,-2.55234s-0.72256,0.42389 -0.72256,-0.7666s0.72256,0.7666 1.44511,-3.83002c0,0 2.00332,-0.59675 1.60379,-5.53158l-0.4817,0z"/>
 </g>
</svg>