<svg width="252.00000000000003" height="201" xmlns="http://www.w3.org/2000/svg">

 <g>
  <title>Layer 1</title>
  <g stroke="null">
   <g stroke="null">
    <path stroke="null" clip-rule="evenodd" fill-rule="evenodd" d="m171.38109,109.96491c19.01111,-13.6682 46.15614,-10.22852 60.65907,7.71212c14.48374,17.94064 10.83883,43.55719 -8.17228,57.24349c-19.01111,13.6682 -46.15614,10.22852 -60.65907,-7.71212c-3.74083,-4.63451 -6.27309,-9.77593 -7.63514,-15.09838l-27.33687,3.20433c-2.68573,0.34397 -5.14125,-1.43018 -5.50574,-3.96468c-0.36449,-2.5345 1.51552,-4.85176 4.20124,-5.19572l27.43279,-3.20433c-0.17265,-12.49146 5.71676,-24.8562 17.016,-32.9847l0,0zm-157.72893,33.20195c-4.33553,1.86467 -5.62084,6.49918 -4.83431,11.44146c0.36449,2.26295 1.15103,4.544 2.2445,6.73453c1.11266,2.19053 2.53226,4.20003 4.22043,5.86556c3.85594,3.83796 9.01637,5.79314 14.34946,3.25864c0.42204,-0.18104 0.86327,-0.21724 1.24694,-0.09052c0.09592,-0.03621 0.15347,-0.09052 0.28776,-0.12672c1.36205,-0.59742 2.58981,-1.14052 3.70247,-1.64742c1.26613,-0.54311 2.45552,-1.0319 3.58736,-1.5026c0.88245,-0.34397 1.89919,0.05431 2.2445,0.85087c0.03837,0.05431 0.05755,0.12672 0.05755,0.18104l0.80572,2.0276c2.07185,5.25004 4.06696,10.33714 6.36901,14.33803c0.03837,0.05431 0.32612,0.63362 0.65225,1.17673c1.40041,2.5345 2.93512,5.26814 4.58492,6.77074c1.45797,1.30346 3.24206,1.5207 5.65921,-0.79656c0.44123,-0.5069 0.88245,-0.9957 1.32368,-1.46639c1.4196,-1.5207 2.82001,-3.0233 3.14614,-5.03279c-0.44123,-0.43449 -1.18939,-0.61552 -1.93756,-0.81466c-2.49389,-0.65173 -4.94941,-1.26725 -5.02615,-6.02849l0,-0.68794c0,-1.39397 -0.03837,-2.10001 -0.13429,-2.37157c-0.05755,-0.16293 -0.47959,-0.41638 -1.26613,-0.94139l-0.30694,-0.18104c-1.55389,-1.0319 -2.32124,-2.67933 -2.55144,-4.52589c-0.28776,-2.19053 0.1151,-4.68882 0.63306,-6.49918c0.15347,-0.57931 0.61388,-0.9957 1.20858,-1.15863c17.22702,-4.5621 28.35361,-3.07761 37.23569,-1.86467c0.38368,0.05431 0.76735,0.09052 1.11266,0.14483c-8.69025,-6.42677 -16.55559,-16.81822 -22.48337,-27.78898c-6.27309,-11.56818 -10.3976,-23.80619 -11.08822,-32.65884c-5.56329,10.60869 -15.55803,27.60794 -43.22103,41.49338c-0.03837,0 -0.05755,0.03621 -0.09592,0.03621l-0.23021,0.09052c-0.28776,0.12672 -0.32612,0.10862 -0.38368,0.18104c0,0.09052 0.07674,0.09052 0,0.25345c0,0.03621 0.01918,-0.07241 -0.23021,0.4888c-0.19184,0.38017 -0.49878,0.65173 -0.84409,0.81466l-0.03837,0.03621l0,0zm72.22688,-11.73111c0.57551,3.98279 -2.53226,11.6768 -5.06451,12.12939c5.60166,7.56729 12.00904,13.93975 18.72336,17.34322c0.38368,-0.0181 0.69062,-0.0181 1.01674,-0.07241c0.5947,-0.10862 1.15103,-0.30776 1.74572,-0.77845c1.18939,-1.5207 1.76491,-3.69313 1.86083,-6.37246c0.21102,-8.21902 -4.41227,-20.49324 -10.8772,-32.04332c-6.44575,-11.56818 -14.71395,-22.33981 -21.71602,-27.55363c-2.57062,-1.90087 -4.91104,-3.0233 -6.75269,-3.0414c-0.47959,0 -0.74817,0 -0.88245,0.09052c-0.13429,0.07241 -0.36449,0.30776 -0.69062,0.70604c-0.15347,0.18104 -0.32612,0.39828 -0.49878,0.65173c-0.01918,0.07241 -0.01918,0.09052 -0.03837,0.16293c-2.05266,5.97418 0.65225,17.90443 6.23472,30.35969c2.64736,-1.61122 15.50048,-1.84656 16.97763,8.40006l-0.03837,0.0181l0,0zm13.9466,32.71315c-0.36449,0.10862 -0.72898,0.12672 -1.13184,-0.0181c-0.30694,-0.0181 -0.65225,-0.03621 -0.99756,-0.07241c-2.28287,-0.16293 -4.56574,-0.45259 -7.02126,-0.77845c-8.36412,-1.12242 -18.87683,-2.5526 -34.87609,1.5388c-0.30694,1.37587 -0.49878,2.98709 -0.32612,4.38106c0.15347,1.0138 0.47959,1.84656 1.11266,2.28105l0.30694,0.18104c1.36205,0.88707 2.05266,1.32156 2.49389,2.33536c0.40286,0.85087 0.40286,1.79225 0.42204,3.60261l0,0.68794c0.01918,2.29915 1.26613,2.62502 2.49389,2.95088c1.61144,0.41638 3.20369,0.81466 4.23961,2.69743c0.17265,0.27155 0.24939,0.57931 0.24939,0.94139c-0.19184,3.40347 -2.1294,5.46728 -4.06696,7.49488c-0.42204,0.43449 -0.86327,0.92328 -1.24694,1.35777l-0.09592,0.10862c-4.23961,4.20003 -7.65432,3.62071 -10.57026,1.0138c-2.09103,-1.86467 -3.72165,-4.83365 -5.29472,-7.5854c-0.13429,-0.23535 -0.26857,-0.4888 -0.65225,-1.14052c-2.3596,-4.16382 -4.41227,-9.37765 -6.54166,-14.73631l-0.21102,-0.56121c-0.61388,0.27155 -1.26613,0.525 -1.88001,0.79656c-1.26613,0.54311 -2.49389,1.06811 -3.64492,1.61122c-0.17265,0.05431 -0.24939,0.12672 -0.32612,0.16293c-0.76735,0.39828 -1.07429,0.59742 -1.84164,0.36207c-6.69513,2.84226 -13.02578,0.39828 -17.68743,-4.25434c-1.91838,-1.91898 -3.56818,-4.23624 -4.81513,-6.69832c-1.24694,-2.46209 -2.11021,-5.10521 -2.53226,-7.67591c-0.95919,-6.13711 0.7098,-11.91215 6.19636,-14.57337c0.21102,-0.4888 0.34531,-0.72414 0.67143,-1.06811c0.36449,-0.36207 0.69062,-0.5069 1.32368,-0.85087l0.23021,-0.09052c0.03837,0 0.05755,-0.03621 0.05755,-0.03621c28.43034,-14.24751 37.52345,-31.91659 42.72225,-41.98218c1.43878,-2.80605 2.58981,-5.03279 3.85594,-6.5897c0.61388,-0.76035 1.09347,-1.24915 1.80327,-1.59311c0.7098,-0.34397 1.47715,-0.4888 2.55144,-0.45259c2.68573,0.03621 5.65921,1.41208 8.82453,3.74744c7.38575,5.48538 15.98008,16.63718 22.61766,28.56743c6.67595,11.96646 11.49108,24.80189 11.26087,33.60023c-0.09592,3.42157 -0.90164,6.30004 -2.66654,8.38195c-0.05755,0.07241 -0.1151,0.14483 -0.21102,0.18104c-1.17021,0.9957 -2.32124,1.46639 -3.56818,1.66553c-0.44123,0.05431 -0.88245,0.10862 -1.28531,0.12672l0.05755,-0.0181l0,0zm106.33562,-34.4692l9.72617,-1.17673c2.9543,-0.36207 5.69758,1.62932 6.08125,4.43537l1.22776,8.97937c0.38368,2.80605 -1.72654,5.37676 -4.70002,5.73883l-4.18206,0.5069c0.90164,2.17243 1.89919,4.09141 4.3739,5.66642c-4.3739,-0.5069 -7.9229,-2.17243 -10.74291,-4.90607l-0.72898,0.09052c-0.28776,0.03621 -0.57551,0.05431 -0.88245,0.05431c1.43878,-1.41208 2.34042,-3.09571 2.11021,-4.76124l-0.51796,-3.74744l-0.46041,-3.38537l-0.76735,-5.594c-0.09592,-0.66983 -0.28776,-1.30346 -0.53715,-1.90087l0,0l0,0zm-27.01074,-0.74225l15.05926,-1.82846l0,0c4.10533,-0.4888 7.88453,2.26295 8.42167,6.13711l0,0l0,0l0,0l1.38123,10.1561l0,0l0,0l0,0c0.28776,2.06381 -0.99756,4.0552 -2.85838,5.5578c-1.72654,1.39397 -4.02859,2.42588 -5.94697,2.66122l0,0l0,0l0,0l-0.15347,0.0181c-1.13184,1.75605 -2.53226,3.31295 -4.18206,4.65262c-1.82246,1.48449 -3.97104,2.69743 -6.42656,3.60261l0,0c-0.46041,0.16293 -0.99756,0.10862 -1.40041,-0.23535c-0.57551,-0.47069 -0.63306,-1.28535 -0.13429,-1.82846c0.97837,-1.06811 1.57307,-2.11812 1.97593,-3.18623c0.21102,-0.59742 0.38368,-1.21294 0.49878,-1.84656l-2.93512,0.36207l0,0c-2.05266,0.25345 -4.02859,-0.30776 -5.54411,-1.43018c-1.51552,-1.10432 -2.58981,-2.76985 -2.85838,-4.70693l0,0l0,0l0,0l-1.38123,-10.1561l0,0l0,0l0,0c-0.53715,-3.85606 2.37879,-7.42246 6.48411,-7.92936l0,0l0,0l0,0z" class="st0"/>
    <g stroke="null" transform="matrix(0.781635 -0.589031 0.589004 0.78167 4.29941 99.3793)">

     <title stroke="null">email-square-color</title>
     <path stroke="null" fill-rule="evenodd" d="m129.22273,15.09356l44.1675,0a15.39891,15.19326 0 0 1 15.35625,15.15117l0,43.57766a15.39891,15.19326 0 0 1 -15.35625,15.15117l-44.1675,0a15.39891,15.19326 0 0 1 -15.35625,-15.15117l0,-43.57766a15.39891,15.19326 0 0 1 15.35625,-15.15117zm2.49844,22.6005l19.92656,16.03499l19.09172,-16.03499l-39.01828,0zm-1.28578,26.98953l14.19844,-14.05091l-14.19844,-11.4235l0,25.47441zm15.76453,-12.78831l-14.66156,14.47779l39.39609,0l-14.01563,-14.47779l-4.61297,3.87798l0,0a1.01156,0.99805 0 0 1 -1.29187,0l-4.83844,-3.89602l0.02438,0.01804zm12.27281,-1.28665l13.70484,14.18318l0,-25.70889l-13.70484,11.52571z" class="cls-1"/>
    </g>
    <path stroke="null" id="svg_3" d="m98.93139,87.9639l23.54786,-17.74539l0,0c3.08484,-2.3247 7.12794,-2.16236 9.03053,0.36257c1.90259,2.52494 0.94419,6.45634 -2.14064,8.78103l-23.54786,17.74539l0,0c-3.08483,2.32469 -7.12794,2.16236 -9.03053,-0.36257c-1.90259,-2.52494 -0.94419,-6.45634 2.14064,-8.78104z"/>
   </g>
  </g>
 </g>
</svg>